<svg xmlns="http://www.w3.org/2000/svg" id="Icons" viewBox="0 0 74 74" width="512" height="512"><path d="M36.958 64.989c-8.916 0-17.86-.373-26.777-1.121a6.042 6.042 0 01-5.493-6v-9.83a11.724 11.724 0 014.293-9.26L4.4 37.621a3.17 3.17 0 01-2.13-4.35 5.413 5.413 0 014.94-3.211h4.439a4.191 4.191 0 013.07 1.918L18 26.606a10.7 10.7 0 019.056-5.086h19.889A10.7 10.7 0 0156 26.605l3.28 5.371a4.144 4.144 0 012.989-1.913h4.521a5.413 5.413 0 014.938 3.2A3.284 3.284 0 0172 34.547a3.16 3.16 0 01-2.4 3.076l-4.614 1.163.074.065A12.156 12.156 0 0169.035 48v9.861a6.042 6.042 0 01-5.495 6 310.732 310.732 0 01-26.582 1.128zM11.552 32.055l-4.344.005A3.412 3.412 0 004.1 34.079a1.174 1.174 0 00.026.988 1.138 1.138 0 00.76.614l6.9 1.736a1 1 0 01.127 1.9 5.486 5.486 0 00-1.116.612 9.637 9.637 0 00-4.106 8.107v9.83a4.031 4.031 0 003.659 4.011 315.914 315.914 0 0053.026 0 4.032 4.032 0 003.662-4.011V48a10.158 10.158 0 00-3.3-7.653 4.782 4.782 0 00-1.559-1.01 1 1 0 01.057-1.923l6.882-1.735A1.18 1.18 0 0070 34.547a1.246 1.246 0 00-.106-.487 3.406 3.406 0 00-3.1-2h-4.442c-.073.014-1.561.242-1.851 2.347a1 1 0 01-1.844.385L54.3 27.649a8.686 8.686 0 00-7.35-4.129H27.054a8.684 8.684 0 00-7.35 4.13l-4.362 7.142a1 1 0 01-1.844-.385c-.29-2.107-1.778-2.333-1.946-2.352z"/><path d="M53.485 39.744h-32.97a1.879 1.879 0 01-1.639-2.8l4.1-7.305a5.244 5.244 0 014.568-2.674h18.909a5.244 5.244 0 014.568 2.674l4.1 7.3a1.879 1.879 0 01-1.639 2.8zm-32.763-2h32.556l-4-7.123a3.245 3.245 0 00-2.824-1.653H27.547a3.243 3.243 0 00-2.824 1.653zm23.992 17.745H29.335a2.8 2.8 0 01-2.7-2.013l-.559-1.876a2.865 2.865 0 012.745-3.684h16.407a2.866 2.866 0 012.745 3.684l-.558 1.871a2.835 2.835 0 01-2.701 2.018zM28.821 49.92a.867.867 0 00-.829 1.112l.558 1.868a.815.815 0 00.785.585h15.379a.824.824 0 00.786-.585l.558-1.872a.867.867 0 00-.829-1.112zM20.9 55.241a2.245 2.245 0 01-.571-.075l-7.1-1.945a4.162 4.162 0 01-2.946-5.175 4.459 4.459 0 014.264-3.227 4.7 4.7 0 011.047.131l.6.173a9.126 9.126 0 016.547 6.406l.26.934a2.194 2.194 0 01-2.1 2.778zm-6.356-8.422a2.451 2.451 0 00-2.339 1.781 2.16 2.16 0 001.531 2.69h.013l7.1 1.944a.19.19 0 00.225-.234l-.26-.935a7.138 7.138 0 00-5.139-5.009l-.578-.167a2.746 2.746 0 00-.551-.07zM53.1 55.24a2.192 2.192 0 01-2.1-2.777l.26-.935a9.144 9.144 0 016.583-6.415l.506-.147a4.794 4.794 0 011.107-.147 4.461 4.461 0 014.265 3.229 4.162 4.162 0 01-2.947 5.173l-7.095 1.943a2.275 2.275 0 01-.579.076zm6.356-8.421a2.865 2.865 0 00-.611.083l-.482.142a7.156 7.156 0 00-5.175 5.019l-.26.935a.178.178 0 00.048.185.175.175 0 00.183.049l7.094-1.941h.013A2.16 2.16 0 0061.8 48.6a2.452 2.452 0 00-2.346-1.781zM63.5 70.583h-6.079a3.016 3.016 0 01-3.012-3.013v-4.114a1 1 0 012 0v4.114a1.014 1.014 0 001.012 1.013H63.5a1.015 1.015 0 001.013-1.013v-5.343a1 1 0 012 0v5.343a3.017 3.017 0 01-3.013 3.013zm-46.921 0H10.5a3.017 3.017 0 01-3.017-3.013v-5.343a1 1 0 112 0v5.343a1.015 1.015 0 001.017 1.013h6.083a1.014 1.014 0 001.012-1.013v-4.114a1 1 0 012 0v4.114a3.016 3.016 0 01-3.016 3.013zm34.99-52.31a6.86 6.86 0 01-6.169-3.788H28.6a6.922 6.922 0 01-12.592-.545 1 1 0 01.927-1.376h2.786l1.179-1.721-1.176-1.722h-2.786a1 1 0 01-.927-1.376A6.924 6.924 0 0128.6 7.206h16.8a6.921 6.921 0 0112.59.541 1 1 0 01-.928 1.374h-2.786L53.1 10.843l1.172 1.721h2.786a1 1 0 01.928 1.374 6.889 6.889 0 01-6.417 4.335zm-23.615-5.788h18.1a1 1 0 01.933.64 4.921 4.921 0 008.313 1.439h-1.553a1 1 0 01-.826-.437l-1.854-2.721a1 1 0 010-1.126l1.854-2.722a1 1 0 01.826-.437H55.3a4.922 4.922 0 00-8.316 1.444 1 1 0 01-.933.641h-18.1a1 1 0 01-.933-.64A4.923 4.923 0 0018.7 7.121h1.549a1 1 0 01.826.437l1.854 2.722a1 1 0 010 1.126l-1.854 2.721a1 1 0 01-.826.437H18.7a4.922 4.922 0 008.32-1.44 1 1 0 01.934-.639z"/></svg>