<svg height="640" viewBox="0 -12 480 480" width="640" xmlns="http://www.w3.org/2000/svg"><path d="M56 232a8 8 0 00-8 8v128a8 8 0 0016 0V240a8 8 0 00-8-8zm0 0"/><path d="M115.52 168a8 8 0 008-8 6.904 6.904 0 00-.48-2.559 7.995 7.995 0 00-6.88-5.601c-19.41-1.817-34.683-17.36-36.16-36.8.043-.29.043-.587 0-.88v-.879A7.019 7.019 0 0180 112V72h32.8a8 8 0 000-16H72a8 8 0 00-8 8v35.68A47.994 47.994 0 0148 64V16h96a47.996 47.996 0 0139.36 20.559 8 8 0 0010.89 1.668 7.995 7.995 0 002.23-10.786A63.998 63.998 0 00144 0H48c-8.836 0-16 7.164-16 16v48a64.003 64.003 0 0032.48 56 56.009 56.009 0 0016 32H56c-30.93 0-56 25.07-56 56v160a8 8 0 0016 0V208c0-22.09 17.91-40 40-40zm0 0"/><path d="M112 222.078L106.238 200h26.082a8 8 0 000-16H96a8.014 8.014 0 00-6.32 3.04 8.012 8.012 0 00-1.442 6.882l8 32a8.11 8.11 0 009.801 5.957 8.11 8.11 0 005.961-9.8zM424 232a8 8 0 00-8 8v128a8 8 0 0016 0V240a8 8 0 00-8-8zm0 0"/><path d="M448 157.441V80c0-44.184-35.816-80-80-80h-16a80.01 80.01 0 00-61.121 28.559A8 8 0 10303.12 38.8 63.995 63.995 0 01352 16h16c35.348 0 64 28.652 64 64v72.559c-1.813 0-3.652-.16-5.52-.48h-27.199A55.996 55.996 0 00416 112V64a8 8 0 00-8-8h-60.16a8 8 0 000 16H400v40c.094 20.676-15.582 38.016-36.16 40a7.995 7.995 0 00-6.88 5.602 6.904 6.904 0 00-.48 2.558 8 8 0 008 8h21.918L356 222.8a8 8 0 003.121 10.88 7.963 7.963 0 003.918 1.039A7.997 7.997 0 00370 230.64L404.719 168h21.043c3.957.156 7.867.91 11.597 2.238H438A40.005 40.005 0 01464 208v160a8 8 0 0016 0V208c-.016-21.617-12.469-41.297-32-50.559zm0 0"/><path d="M312 232h-26.8a71.975 71.975 0 0024.878-39.602A64 64 0 00344 136v-16c0-35.348-28.652-64-64-64H152c-8.836 0-16 7.164-16 16v64a64 64 0 0033.922 56.398A71.975 71.975 0 00194.8 232H168c-30.93 0-56 25.07-56 56v160a8 8 0 0016 0V288c0-22.09 17.91-40 40-40h144c22.09 0 40 17.91 40 40v160a8 8 0 0016 0V288c0-30.93-25.07-56-56-56zm-160-96V72h128c26.508 0 48 21.492 48 48v16a47.994 47.994 0 01-16 35.68V112a8 8 0 00-8-8H176a8 8 0 00-8 8v59.68A47.994 47.994 0 01152 136zm32.96 50.559a2.95 2.95 0 000-.88c-.5-2.804-.82-5.636-.96-8.48V120h112v57.2a68.568 68.568 0 01-.879 8.48c-.047.293-.047.59 0 .879-4.969 26.484-28.094 45.675-55.043 45.675-26.945 0-50.07-19.191-55.039-45.675zm0 0"/><path d="M265.922 264a8.003 8.003 0 00-9.684 5.84L249.762 296h-19.524L224 270.078a7.996 7.996 0 00-5.516-6.035 8.002 8.002 0 00-10.004 9.879l8 30.719-8.48 89.68a8 8 0 002.719 6.718l24 20.961a8.005 8.005 0 0010.562 0l24-20.96a8 8 0 002.719-6.72l-8-89.68 8-30.718a8.002 8.002 0 00-6.078-9.922zM240 405.36L224 392l7.04-80h17.28l7.68 80zM168 312a8 8 0 00-8 8v128a8 8 0 0016 0V320a8 8 0 00-8-8zm144 0a8 8 0 00-8 8v128a8 8 0 0016 0V320a8 8 0 00-8-8zm0 0"/></svg>