<svg width="633" height="668" viewBox="0 0 633 668" fill="none" xmlns="http://www.w3.org/2000/svg">
<path d="M560.7 65.7C544.1 50.5 477.2 1.9 328.2 1.2C328.2 1.2 152.4 -9.4 66.6999 69.2C18.9999 116.9 2.19988 186.7 0.499876 273.3C-1.30012 359.9 -3.60013 522 152.8 566H152.9L152.8 633.1C152.8 633.1 151.8 660.3 169.7 665.8C191.3 672.5 204 651.9 224.7 629.6C236 617.4 251.7 599.4 263.5 585.7C370.4 594.7 452.7 574.1 462 571.1C483.6 564.1 605.8 548.4 625.6 386.3C646.1 219.2 615.6 113.4 560.7 65.7ZM578.8 374.3C562 509.7 462.9 518.3 444.7 524.1C436.9 526.6 364.7 544.6 273.9 538.6C273.9 538.6 206.2 620.2 185.1 641.5C181.8 644.8 177.9 646.2 175.3 645.5C171.7 644.6 170.7 640.3 170.7 634C170.8 625 171.3 522.5 171.3 522.5C171.2 522.5 171.2 522.5 171.3 522.5C39.0999 485.8 46.7999 347.7 48.2999 275.4C49.7999 203.1 63.3999 143.9 103.7 104.1C176.2 38.5 325.5 48.3 325.5 48.3C451.6 48.9 512 86.8 526 99.5C572.4 139.4 596.1 234.7 578.8 374.3Z" fill="#665CAC"/>
<path d="M389.5 269.6C387.9 236.5 371.1 219.2 339.1 217.5" stroke="#665CAC" stroke-width="16.8562" stroke-linecap="round" stroke-linejoin="round"/>
<path d="M432.7 284.1C433.4 253.3 424.3 227.6 405.3 206.9C386.3 186.2 360 174.7 326.2 172.3" stroke="#665CAC" stroke-width="16.8562" stroke-linecap="round" stroke-linejoin="round"/>
<path d="M477 301.4C476.6 247.9 460.6 205.9 429.1 175.1C397.6 144.4 358.3 128.8 311.4 128.5" stroke="#665CAC" stroke-width="16.8562" stroke-linecap="round" stroke-linejoin="round"/>
<path d="M340.8 382.5C340.8 382.5 352.7 383.5 359 375.6L371.4 360C377.4 352.2 391.9 347.3 406.1 355.2C414 359.7 428.2 368.4 437 374.9C446.4 381.8 465.7 397.9 465.7 397.9C474.9 405.6 477 417 470.8 429C470.8 429.1 470.7 429.2 470.7 429.2C464.3 440.5 455.7 451.2 444.8 461.1C444.7 461.2 444.7 461.2 444.6 461.3C435.7 468.7 426.9 473 418.3 474C417.3 474.2 416 474.3 414.5 474.2C410.7 474.2 407 473.7 403.3 472.5L403 472.1C389.7 468.4 367.6 459 330.7 438.7C306.7 425.5 286.8 412 270 398.6C261.1 391.6 252 383.6 242.7 374.4C242.4 374.1 242.1 373.8 241.8 373.5C241.5 373.2 241.2 372.9 240.9 372.6C240.6 372.3 240.3 372 240 371.7C239.7 371.4 239.4 371.1 239.1 370.8C229.9 361.5 221.9 352.4 214.9 343.5C201.5 326.7 188 306.7 174.8 282.8C154.5 245.9 145.1 223.8 141.4 210.5L141 210.2C139.8 206.5 139.2 202.8 139.3 199C139.2 197.5 139.3 196.2 139.5 195.2C140.5 186.6 144.8 177.8 152.2 168.9C152.3 168.8 152.3 168.8 152.4 168.7C162.3 157.8 172.9 149.2 184.3 142.8C184.4 142.8 184.5 142.7 184.5 142.7C196.5 136.5 207.9 138.6 215.6 147.8C215.7 147.9 231.7 167.1 238.6 176.5C245.1 185.4 253.9 199.5 258.3 207.4C266.2 221.6 261.3 236.1 253.5 242.1L237.9 254.5C230 260.9 231 272.7 231 272.7C231 272.7 254.2 360.4 340.8 382.5Z" fill="#665CAC"/>
</svg>
